<svg width="30" height="30" viewBox="0 0 30 30" fill="none" xmlns="http://www.w3.org/2000/svg">
<path d="M15 26.25C11.875 26.25 9.21875 25.1562 7.03125 22.9688C4.84375 20.7812 3.75 18.125 3.75 15C3.75 11.875 4.84375 9.21875 7.03125 7.03125C9.21875 4.84375 11.875 3.75 15 3.75C15.2917 3.75 15.5783 3.76042 15.86 3.78125C16.1417 3.80208 16.4175 3.83333 16.6875 3.875C15.8333 4.47917 15.1508 5.26583 14.64 6.235C14.1292 7.20417 13.8742 8.25083 13.875 9.375C13.875 11.25 14.5312 12.8438 15.8438 14.1562C17.1562 15.4688 18.75 16.125 20.625 16.125C21.7708 16.125 22.8229 15.8696 23.7812 15.3587C24.7396 14.8479 25.5208 14.1658 26.125 13.3125C26.1667 13.5833 26.1979 13.8592 26.2188 14.14C26.2396 14.4208 26.25 14.7075 26.25 15C26.25 18.125 25.1562 20.7812 22.9688 22.9688C20.7812 25.1562 18.125 26.25 15 26.25ZM15 23.75C16.8333 23.75 18.4792 23.2446 19.9375 22.2338C21.3958 21.2229 22.4583 19.9054 23.125 18.2812C22.7083 18.3854 22.2917 18.4688 21.875 18.5312C21.4583 18.5938 21.0417 18.625 20.625 18.625C18.0625 18.625 15.88 17.7238 14.0775 15.9213C12.275 14.1188 11.3742 11.9367 11.375 9.375C11.375 8.95833 11.4062 8.54167 11.4688 8.125C11.5313 7.70833 11.6146 7.29167 11.7188 6.875C10.0938 7.54167 8.77583 8.60417 7.765 10.0625C6.75417 11.5208 6.24917 13.1667 6.25 15C6.25 17.4167 7.10417 19.4792 8.8125 21.1875C10.5208 22.8958 12.5833 23.75 15 23.75Z" fill="black"/>
</svg>
