<svg width="21" height="21" viewBox="0 0 21 21" fill="none" xmlns="http://www.w3.org/2000/svg">
<path d="M17.2506 18.4854L11.7058 12.9398C11.2657 13.2919 10.7596 13.5706 10.1875 13.776C9.61545 13.9814 9.00669 14.0841 8.36126 14.0841C6.76235 14.0841 5.40929 13.5301 4.30208 12.4222C3.19487 11.3142 2.64097 9.96098 2.64038 8.36243C2.63979 6.76389 3.19369 5.41064 4.30208 4.30269C5.41046 3.19474 6.76352 2.64077 8.36126 2.64077C9.959 2.64077 11.3124 3.19474 12.4213 4.30269C13.5303 5.41064 14.0839 6.76389 14.0821 8.36243C14.0821 9.00796 13.9795 9.6168 13.7741 10.189C13.5687 10.7611 13.29 11.2673 12.938 11.7074L18.4828 17.253L17.2506 18.4854ZM8.36126 12.3236C9.46143 12.3236 10.3967 11.9386 11.1671 11.1687C11.9375 10.3988 12.3225 9.46334 12.3219 8.36243C12.3213 7.26153 11.9364 6.3264 11.1671 5.55706C10.3979 4.78771 9.4626 4.40246 8.36126 4.40128C7.25992 4.40011 6.32492 4.78537 5.55627 5.55706C4.78762 6.32875 4.40241 7.26388 4.40065 8.36243C4.39889 9.46099 4.7841 10.3964 5.55627 11.1687C6.32844 11.941 7.26344 12.3259 8.36126 12.3236Z" fill="#3A3A3A"/>
</svg>
