<svg width="28" height="28" viewBox="0 0 28 28" fill="none" xmlns="http://www.w3.org/2000/svg">
<path d="M5.83333 22.1667H7.49583L18.9 10.7625L17.2375 9.1L5.83333 20.5042V22.1667ZM3.5 24.5V19.5417L18.9 4.17083C19.1333 3.95694 19.3912 3.79167 19.6735 3.675C19.9558 3.55833 20.2522 3.5 20.5625 3.5C20.8728 3.5 21.1742 3.55833 21.4667 3.675C21.7591 3.79167 22.0119 3.96667 22.225 4.2L23.8292 5.83333C24.0625 6.04722 24.2328 6.3 24.3402 6.59167C24.4475 6.88333 24.5008 7.175 24.5 7.46667C24.5 7.77778 24.4467 8.0745 24.3402 8.35683C24.2336 8.63917 24.0633 8.89661 23.8292 9.12917L8.45833 24.5H3.5ZM18.0542 9.94583L17.2375 9.1L18.9 10.7625L18.0542 9.94583Z" fill="#3A3A3A"/>
</svg>
