<svg width="30" height="30" viewBox="0 0 30 30" fill="none" xmlns="http://www.w3.org/2000/svg">
<path d="M23.1539 15.1242L17.1094 12.8906L14.8828 6.84141C14.751 6.4832 14.5124 6.17406 14.1993 5.95569C13.8863 5.73732 13.5137 5.62024 13.132 5.62024C12.7503 5.62024 12.3778 5.73732 12.0647 5.95569C11.7517 6.17406 11.5131 6.4832 11.3813 6.84141L9.14063 12.8906L3.09141 15.1172C2.7332 15.249 2.42406 15.4876 2.20569 15.8007C1.98732 16.1137 1.87024 16.4863 1.87024 16.868C1.87024 17.2497 1.98732 17.6222 2.20569 17.9353C2.42406 18.2483 2.7332 18.4869 3.09141 18.6188L9.14063 20.8594L11.3672 26.9086C11.499 27.2668 11.7376 27.5759 12.0507 27.7943C12.3637 28.0127 12.7363 28.1298 13.118 28.1298C13.4997 28.1298 13.8722 28.0127 14.1853 27.7943C14.4983 27.5759 14.7369 27.2668 14.8688 26.9086L17.1094 20.8594L23.1586 18.6328C23.5168 18.501 23.826 18.2624 24.0443 17.9493C24.2627 17.6363 24.3798 17.2637 24.3798 16.882C24.3798 16.5003 24.2627 16.1278 24.0443 15.8147C23.826 15.5017 23.5168 15.2631 23.1586 15.1313L23.1539 15.1242ZM16.0547 19.2445C15.9274 19.2914 15.8119 19.3654 15.716 19.4613C15.6201 19.5572 15.5461 19.6727 15.4992 19.8L13.125 26.2324L10.7555 19.8047C10.7086 19.6761 10.6342 19.5593 10.5375 19.4625C10.4407 19.3658 10.3239 19.2914 10.1953 19.2445L3.76758 16.875L10.1953 14.5055C10.3239 14.4586 10.4407 14.3842 10.5375 14.2875C10.6342 14.1907 10.7086 14.0739 10.7555 13.9453L13.125 7.51758L15.4945 13.9453C15.5414 14.0726 15.6154 14.1881 15.7113 14.284C15.8072 14.3799 15.9228 14.4539 16.05 14.5008L22.4824 16.875L16.0547 19.2445ZM16.875 4.6875C16.875 4.43886 16.9738 4.2004 17.1496 4.02459C17.3254 3.84877 17.5639 3.75 17.8125 3.75H19.6875V1.875C19.6875 1.62636 19.7863 1.3879 19.9621 1.21209C20.1379 1.03627 20.3764 0.9375 20.625 0.9375C20.8736 0.9375 21.1121 1.03627 21.2879 1.21209C21.4637 1.3879 21.5625 1.62636 21.5625 1.875V3.75H23.4375C23.6861 3.75 23.9246 3.84877 24.1004 4.02459C24.2762 4.2004 24.375 4.43886 24.375 4.6875C24.375 4.93614 24.2762 5.1746 24.1004 5.35041C23.9246 5.52623 23.6861 5.625 23.4375 5.625H21.5625V7.5C21.5625 7.74864 21.4637 7.9871 21.2879 8.16291C21.1121 8.33873 20.8736 8.4375 20.625 8.4375C20.3764 8.4375 20.1379 8.33873 19.9621 8.16291C19.7863 7.9871 19.6875 7.74864 19.6875 7.5V5.625H17.8125C17.5639 5.625 17.3254 5.52623 17.1496 5.35041C16.9738 5.1746 16.875 4.93614 16.875 4.6875ZM29.0625 10.3125C29.0625 10.5611 28.9637 10.7996 28.7879 10.9754C28.6121 11.1512 28.3736 11.25 28.125 11.25H27.1875V12.1875C27.1875 12.4361 27.0887 12.6746 26.9129 12.8504C26.7371 13.0262 26.4986 13.125 26.25 13.125C26.0014 13.125 25.7629 13.0262 25.5871 12.8504C25.4113 12.6746 25.3125 12.4361 25.3125 12.1875V11.25H24.375C24.1264 11.25 23.8879 11.1512 23.7121 10.9754C23.5363 10.7996 23.4375 10.5611 23.4375 10.3125C23.4375 10.0639 23.5363 9.8254 23.7121 9.64959C23.8879 9.47377 24.1264 9.375 24.375 9.375H25.3125V8.4375C25.3125 8.18886 25.4113 7.9504 25.5871 7.77459C25.7629 7.59877 26.0014 7.5 26.25 7.5C26.4986 7.5 26.7371 7.59877 26.9129 7.77459C27.0887 7.9504 27.1875 8.18886 27.1875 8.4375V9.375H28.125C28.3736 9.375 28.6121 9.47377 28.7879 9.64959C28.9637 9.8254 29.0625 10.0639 29.0625 10.3125Z" fill="#3A3A3A"/>
</svg>
