<svg width="34" height="34" viewBox="0 0 34 34" fill="none" xmlns="http://www.w3.org/2000/svg">
<path d="M12.0612 13.4258V11.5508H33.6667V13.4258H12.0612ZM12.0612 19.7708V17.8958H33.6667V19.7708H12.0612ZM12.0612 26.1177V24.2427H33.6667V26.1177H12.0612ZM6.74466 13.6396C6.43899 13.6396 6.18291 13.5252 5.97641 13.2965C5.76991 13.0702 5.66666 12.7883 5.66666 12.4508C5.66666 12.1346 5.76991 11.8696 5.97641 11.6558C6.18291 11.4408 6.43899 11.3333 6.74466 11.3333C7.04916 11.3333 7.30466 11.4408 7.51116 11.6558C7.71766 11.8683 7.82091 12.1333 7.82091 12.4508C7.82091 12.7883 7.71766 13.0708 7.51116 13.2983C7.30466 13.5271 7.04857 13.6415 6.74291 13.6415M6.74291 19.9508C6.43841 19.9508 6.18291 19.844 5.97641 19.6302C5.76991 19.4165 5.66666 19.1508 5.66666 18.8333C5.66666 18.4708 5.76991 18.1821 5.97641 17.9671C6.18291 17.7521 6.43899 17.644 6.74466 17.6427C7.05032 17.6415 7.30582 17.749 7.51116 17.9652C7.71649 18.1815 7.81974 18.4708 7.82091 18.8333C7.82091 19.1496 7.71766 19.4152 7.51116 19.6302C7.30466 19.8452 7.04857 19.9521 6.74291 19.9508ZM6.74291 26.3333C6.43841 26.3333 6.18291 26.2196 5.97641 25.9921C5.76991 25.7633 5.66666 25.4808 5.66666 25.1446C5.66666 24.8271 5.76991 24.5615 5.97641 24.3477C6.18291 24.1327 6.43899 24.0252 6.74466 24.0252C7.04916 24.0252 7.30466 24.1327 7.51116 24.3477C7.71766 24.5627 7.82091 24.8283 7.82091 25.1446C7.82091 25.4808 7.71766 25.7633 7.51116 25.9921C7.30466 26.2196 7.04857 26.3333 6.74291 26.3333Z" fill="#3A3A3A"/>
</svg>
