<svg width="30" height="30" viewBox="0 0 30 30" fill="none" xmlns="http://www.w3.org/2000/svg">
<path d="M7.99999 5.95C9.86289 4.12436 12.371 3.10767 14.9793 3.12084C17.5876 3.13401 20.0853 4.17599 21.9296 6.02036C23.774 7.86472 24.816 10.3624 24.8292 12.9707C24.8423 15.579 23.8256 18.0871 22 19.95L16.7675 25.1825C16.2987 25.6512 15.6629 25.9145 15 25.9145C14.3371 25.9145 13.7013 25.6512 13.2325 25.1825L7.99999 19.95C6.1436 18.0934 5.10071 15.5755 5.10071 12.95C5.10071 10.3245 6.1436 7.80658 7.99999 5.95Z" stroke="black" stroke-width="1.5" stroke-linejoin="round"/>
<path d="M15 16.7C17.0711 16.7 18.75 15.0211 18.75 12.95C18.75 10.8789 17.0711 9.2 15 9.2C12.9289 9.2 11.25 10.8789 11.25 12.95C11.25 15.0211 12.9289 16.7 15 16.7Z" stroke="black" stroke-width="1.5" stroke-linecap="round" stroke-linejoin="round"/>
</svg>
