<svg width="30" height="30" viewBox="0 0 30 30" fill="none" xmlns="http://www.w3.org/2000/svg">
<path d="M15 18.75C17.0711 18.75 18.75 17.0711 18.75 15C18.75 12.9289 17.0711 11.25 15 11.25C12.9289 11.25 11.25 12.9289 11.25 15C11.25 17.0711 12.9289 18.75 15 18.75Z" stroke="#3A3A3A" stroke-width="1.5"/>
<path d="M17.2063 2.69C16.7475 2.5 16.165 2.5 15 2.5C13.835 2.5 13.2525 2.5 12.7938 2.69C12.4902 2.81564 12.2145 2.99987 11.9822 3.23215C11.7499 3.46444 11.5657 3.74023 11.44 4.04375C11.325 4.3225 11.2788 4.64875 11.2613 5.1225C11.2531 5.46491 11.1583 5.79966 10.9856 6.09544C10.8129 6.39122 10.568 6.63836 10.2738 6.81375C9.97477 6.98096 9.63825 7.06959 9.29568 7.07134C8.95311 7.07309 8.6157 6.9879 8.31501 6.82375C7.89501 6.60125 7.59126 6.47875 7.29001 6.43875C6.63291 6.35234 5.96839 6.53038 5.44251 6.93375C5.05001 7.2375 4.75751 7.74125 4.17501 8.75C3.59251 9.75875 3.30001 10.2625 3.23626 10.7562C3.19331 11.0818 3.21491 11.4127 3.29985 11.7299C3.38478 12.0471 3.53138 12.3445 3.73126 12.605C3.91626 12.845 4.17501 13.0462 4.57626 13.2987C5.16751 13.67 5.54751 14.3025 5.54751 15C5.54751 15.6975 5.16751 16.33 4.57626 16.7C4.17501 16.9537 3.91501 17.155 3.73126 17.395C3.53138 17.6555 3.38478 17.9529 3.29985 18.2701C3.21491 18.5873 3.19331 18.9182 3.23626 19.2438C3.30126 19.7363 3.59251 20.2413 4.17376 21.25C4.75751 22.2587 5.04876 22.7625 5.44251 23.0662C5.70306 23.2661 6.00043 23.4127 6.31765 23.4977C6.63486 23.5826 6.9657 23.6042 7.29126 23.5613C7.59126 23.5213 7.89501 23.3988 8.31501 23.1763C8.6157 23.0121 8.95311 22.9269 9.29568 22.9287C9.63825 22.9304 9.97477 23.019 10.2738 23.1862C10.8775 23.5362 11.2363 24.18 11.2613 24.8775C11.2788 25.3525 11.3238 25.6775 11.44 25.9562C11.5657 26.2598 11.7499 26.5356 11.9822 26.7678C12.2145 27.0001 12.4902 27.1844 12.7938 27.31C13.2525 27.5 13.835 27.5 15 27.5C16.165 27.5 16.7475 27.5 17.2063 27.31C17.5098 27.1844 17.7856 27.0001 18.0179 26.7678C18.2501 26.5356 18.4344 26.2598 18.56 25.9562C18.675 25.6775 18.7213 25.3525 18.7388 24.8775C18.7638 24.18 19.1225 23.535 19.7263 23.1862C20.0253 23.019 20.3618 22.9304 20.7043 22.9287C21.0469 22.9269 21.3843 23.0121 21.685 23.1763C22.105 23.3988 22.4088 23.5213 22.7088 23.5613C23.0343 23.6042 23.3652 23.5826 23.6824 23.4977C23.9996 23.4127 24.297 23.2661 24.5575 23.0662C24.9513 22.7637 25.2425 22.2587 25.825 21.25C26.4075 20.2413 26.7 19.7375 26.7638 19.2438C26.8067 18.9182 26.7851 18.5873 26.7002 18.2701C26.6152 17.9529 26.4686 17.6555 26.2688 17.395C26.0838 17.155 25.825 16.9538 25.4238 16.7013C25.1312 16.523 24.8886 16.2734 24.7187 15.9759C24.5489 15.6783 24.4573 15.3426 24.4525 15C24.4525 14.3025 24.8325 13.67 25.4238 13.3C25.825 13.0463 26.085 12.845 26.2688 12.605C26.4686 12.3445 26.6152 12.0471 26.7002 11.7299C26.7851 11.4127 26.8067 11.0818 26.7638 10.7562C26.6988 10.2637 26.4075 9.75875 25.8263 8.75C25.2425 7.74125 24.9513 7.2375 24.5575 6.93375C24.297 6.73386 23.9996 6.58727 23.6824 6.50233C23.3652 6.4174 23.0343 6.39579 22.7088 6.43875C22.4088 6.47875 22.105 6.60125 21.6838 6.82375C21.3832 6.98768 21.0461 7.07274 20.7037 7.07099C20.3614 7.06925 20.0251 6.98074 19.7263 6.81375C19.4321 6.63836 19.1872 6.39122 19.0145 6.09544C18.8418 5.79966 18.7469 5.46491 18.7388 5.1225C18.7213 4.6475 18.6763 4.3225 18.56 4.04375C18.4344 3.74023 18.2501 3.46444 18.0179 3.23215C17.7856 2.99987 17.5098 2.81564 17.2063 2.69Z" stroke="#3A3A3A" stroke-width="2"/>
</svg>
