<svg width="30" height="30" viewBox="0 0 30 30" fill="none" xmlns="http://www.w3.org/2000/svg">
<path d="M15 21.49L19.135 17.3563L18.25 16.4713L15.625 19.0963V13.2212H14.375V19.0963L11.75 16.4713L10.865 17.3563L15 21.49ZM6.25 9.76V22.9813C6.25 23.2054 6.32208 23.3896 6.46625 23.5337C6.61042 23.6779 6.795 23.75 7.02 23.75H22.9813C23.2054 23.75 23.3896 23.6779 23.5337 23.5337C23.6779 23.3896 23.75 23.2054 23.75 22.9813V9.76H6.25ZM7.2125 25C6.6525 25 6.14375 24.7712 5.68625 24.3138C5.22875 23.8563 5 23.3479 5 22.7888V9.3575C5 9.11417 5.03875 8.885 5.11625 8.67C5.19375 8.455 5.31042 8.25708 5.46625 8.07625L7.41375 5.73875C7.59458 5.49458 7.82083 5.31042 8.0925 5.18625C8.36417 5.06208 8.65542 5 8.96625 5H20.9862C21.2962 5 21.5912 5.06208 21.8713 5.18625C22.1512 5.31042 22.3817 5.49417 22.5625 5.7375L24.5338 8.125C24.6896 8.30583 24.8062 8.50792 24.8837 8.73125C24.9613 8.95375 25 9.18708 25 9.43125V22.7875C25 23.3467 24.7712 23.855 24.3138 24.3125C23.8563 24.77 23.3479 24.9988 22.7888 24.9988L7.2125 25ZM6.725 8.51H23.25L21.5875 6.5125C21.5067 6.4325 21.4142 6.36875 21.31 6.32125C21.2058 6.27375 21.0975 6.25 20.985 6.25H8.99C8.87833 6.25 8.77 6.27417 8.665 6.3225C8.56 6.37083 8.46833 6.435 8.39 6.515L6.725 8.51Z" fill="black"/>
</svg>
