<svg width="24" height="24" viewBox="0 0 24 24" fill="none" xmlns="http://www.w3.org/2000/svg">
<path fill-rule="evenodd" clip-rule="evenodd" d="M1.39028 16.4768C1.4058 16.3723 1.38849 16.2655 1.34076 16.1713C1.03816 15.5223 0.766111 14.8595 0.525507 14.1849C0.296932 13.527 0.0429603 12.6578 0.00867413 11.8154C-0.245298 5.38143 5.11224 0.265794 11.5517 0.0100119C17.9912 -0.24577 23.736 4.42702 23.9912 10.861C24.2465 17.295 18.8877 22.4106 12.4482 22.6664C11.2284 22.7161 10.0078 22.5892 8.82404 22.2897L5.3078 23.7379C2.77824 24.7788 0.117882 22.5608 0.67916 19.8783L1.39028 16.4768ZM3.87667 16.9998C4.00431 16.3594 3.92376 15.6948 3.64682 15.1037C3.15158 14.0296 2.58268 12.6222 2.54712 11.7149C2.3541 6.86267 6.43035 2.76126 11.652 2.55256C16.8724 2.34513 21.261 6.1106 21.4528 10.9628C21.6458 15.815 17.5696 19.9164 12.3479 20.1251C11.2508 20.1692 10.1538 20.0346 9.0996 19.7268C8.83146 19.6448 8.54342 19.657 8.28308 19.7612L4.34271 21.3837C4.19691 21.4437 4.03755 21.4628 3.88175 21.4389C3.72595 21.4149 3.5796 21.3489 3.45843 21.2479C3.33726 21.1469 3.24585 21.0147 3.19402 20.8655C3.1422 20.7164 3.13191 20.5559 3.16428 20.4013L3.87667 16.9998Z" fill="#3A3A3A"/>
</svg>
