<svg width="24" height="24" viewBox="0 0 24 24" fill="none" xmlns="http://www.w3.org/2000/svg">
<path d="M10.372 13.127C9.83007 12.4055 9.56414 11.5139 9.62228 10.6134C9.68042 9.71286 10.0588 8.86286 10.689 8.217L14.739 4.093C15.0763 3.74662 15.4796 3.47132 15.925 3.28333C16.3704 3.09535 16.849 2.9985 17.3325 2.9985C17.816 2.9985 18.2946 3.09535 18.74 3.28333C19.1854 3.47132 19.5887 3.74662 19.926 4.093C20.6144 4.79896 20.9997 5.74597 20.9997 6.732C20.9997 7.71804 20.6144 8.66505 19.926 9.371L17.217 12.301M13.174 10.651C13.8573 11.3562 14.2394 12.2996 14.2394 13.2815C14.2394 14.2634 13.8573 15.2068 13.174 15.912L9.26 19.907C8.92272 20.2532 8.51951 20.5284 8.07417 20.7163C7.62882 20.9042 7.15036 21.001 6.667 21.001C6.18364 21.001 5.70518 20.9042 5.25984 20.7163C4.81449 20.5284 4.41129 20.2532 4.074 19.907C3.3856 19.201 3.00031 18.254 3.00031 17.268C3.00031 16.282 3.3856 15.335 4.074 14.629L6.681 11.89" stroke="black" stroke-width="1.5" stroke-miterlimit="10" stroke-linecap="round" stroke-linejoin="round"/>
</svg>
