<svg width="25" height="25" viewBox="0 0 25 25" fill="none" xmlns="http://www.w3.org/2000/svg">
<path d="M14.933 25C15.792 25 16.4002 24.2607 16.8414 23.1151L24.6539 2.69654C24.8687 2.14766 25 1.65835 25 1.25255C25 0.477087 24.511 0 23.7354 0C23.3298 0 22.8408 0.119145 22.2922 0.334012L1.77757 8.19756C0.775048 8.57943 0 9.18788 0 10.0591C0 11.1568 0.835098 11.527 1.98011 11.8732L10.5916 14.4028L13.0964 22.9114C13.4542 24.1166 13.8236 25 14.933 25ZM11.129 12.5896L2.89867 10.0713C2.70783 10.0112 2.64829 9.96334 2.64829 9.87984C2.64829 9.79633 2.69562 9.73727 2.87475 9.66548L19.0001 3.5555C19.9543 3.19756 20.8729 2.71996 21.7553 2.31415C20.9685 2.95876 19.9904 3.72251 19.3345 4.37882L11.129 12.5896ZM15.1244 22.3753C15.0292 22.3753 14.9814 22.2912 14.9218 22.1003L12.4048 13.8666L20.6108 5.65631C21.255 5.01171 22.054 4.00917 22.6866 3.19807C22.281 4.10438 21.8036 5.02342 21.4342 5.99033L15.3274 22.1242C15.2557 22.3035 15.2078 22.3753 15.1244 22.3753Z" fill="#3A3A3A"/>
</svg>
