<svg width="30" height="30" viewBox="0 0 30 30" fill="none" xmlns="http://www.w3.org/2000/svg">
<path d="M15 21.25C13.2708 21.25 11.7971 20.6404 10.5788 19.4212C9.36042 18.2021 8.75083 16.7283 8.75 15C8.74917 13.2717 9.35875 11.7979 10.5788 10.5788C11.7987 9.35958 13.2725 8.75 15 8.75C16.7275 8.75 18.2017 9.35958 19.4225 10.5788C20.6433 11.7979 21.2525 13.2717 21.25 15C21.2475 16.7283 20.6379 18.2025 19.4212 19.4225C18.2046 20.6425 16.7308 21.2517 15 21.25ZM6.25 16.25H1.25V13.75H6.25V16.25ZM28.75 16.25H23.75V13.75H28.75V16.25ZM13.75 6.25V1.25H16.25V6.25H13.75ZM13.75 28.75V23.75H16.25V28.75H13.75ZM8 9.6875L4.84375 6.65625L6.625 4.8125L9.625 7.9375L8 9.6875ZM23.375 25.1875L20.3438 22.0312L22 20.3125L25.1562 23.3438L23.375 25.1875ZM20.3125 8L23.3438 4.84375L25.1875 6.625L22.0625 9.625L20.3125 8ZM4.8125 23.375L7.96875 20.3438L9.6875 22L6.65625 25.1562L4.8125 23.375Z" fill="black"/>
</svg>
