<svg width="30" height="30" viewBox="0 0 30 30" fill="none" xmlns="http://www.w3.org/2000/svg">
<path d="M4.27208 1.288C4.58027 1.27823 4.91202 1.28699 5.22038 1.28816L6.69083 1.28862L11.5153 1.28821L15.6119 1.2881L16.9336 1.28768C17.1611 1.28737 17.4016 1.27911 17.6271 1.28859C17.874 1.5103 18.1897 1.84649 18.4288 2.08689L19.8286 3.48772L23.7659 7.42093C24.4065 8.06071 25.0792 8.75585 25.7298 9.38039C25.7151 9.74043 25.7233 10.1506 25.7231 10.5145L25.723 12.465L25.7263 17.4911L24.6235 17.4927L24.6182 10.1683C24.0677 10.1529 23.4624 10.1645 22.9059 10.1644L19.0045 10.1638C18.3032 10.1638 17.5452 10.178 16.8473 10.1581L16.8462 2.38356C16.544 2.35646 15.9242 2.37389 15.6021 2.37392L13.2108 2.37433L5.3764 2.37731C5.34987 3.60259 5.36911 4.90714 5.37551 6.13575L5.377 10.3052L5.36682 27.6253L21.4256 27.6199C21.7393 27.9794 22.0485 28.3428 22.3531 28.7101C21.5895 28.7246 20.7913 28.714 20.025 28.7143H15.6059L4.2769 28.7124L4.26596 10.4863L4.268 4.3419C4.26907 3.32934 4.29173 2.29977 4.27208 1.288ZM17.9435 9.0786L21.9825 9.0796L23.2191 9.07805C23.4047 9.07717 23.6802 9.06329 23.854 9.07585C23.7815 8.97489 23.5288 8.73366 23.4278 8.63257L22.5892 7.79648L20.0032 5.2114C19.4905 4.6903 18.974 4.17296 18.4537 3.65944C18.3958 3.60173 17.988 3.18203 17.9446 3.15491L17.9435 9.0786Z" fill="#3A3A3A"/>
<path d="M22.8747 18.6555C23.3363 18.6729 23.8613 18.6621 24.3261 18.6623L26.9848 18.6601L26.9829 24.1112L28.9821 24.108C29.1917 24.1074 29.7858 24.0917 29.972 24.1144L29.977 24.1307C29.8201 24.2912 29.6243 24.5329 29.476 24.7071L28.6419 25.6838L25.8797 28.903C25.5914 29.2321 25.2185 29.7041 24.9231 30C24.825 29.8973 24.6825 29.7185 24.5831 29.6035L23.7199 28.598L21.0715 25.5149C20.6755 25.0554 20.2655 24.5574 19.858 24.111L21.8024 24.1099C22.1174 24.1097 22.565 24.0936 22.8687 24.1116L22.8655 20.6364L22.8788 19.2937C22.88 19.0901 22.8656 18.8515 22.8747 18.6555ZM23.9747 25.1999C23.4056 25.1917 22.8363 25.1943 22.2674 25.2081C23.073 26.175 23.9136 27.1115 24.7229 28.0753C24.7917 28.1572 24.8662 28.239 24.9289 28.3254C25.0692 28.1542 25.2108 27.9839 25.3539 27.815C26.0884 26.9619 26.8752 26.0763 27.5865 25.2117C27.2902 25.2123 26.9937 25.2108 26.6974 25.2073C26.4526 25.2025 26.1234 25.1851 25.8841 25.2116C25.8606 23.4132 25.8807 21.5622 25.8819 19.761C25.6586 19.738 25.3569 19.7465 25.1263 19.7468L23.9684 19.749C23.9372 21.5625 23.9851 23.3867 23.9747 25.1999Z" fill="#3A3A3A"/>
<path d="M12.1481 11.5359C12.3632 11.5218 12.7538 11.5367 12.9861 11.5374C13.6692 12.6917 14.3628 13.8397 15.0668 14.9814C15.1332 14.891 15.2336 14.7117 15.2974 14.6078L15.7242 13.9165C16.2103 13.1307 16.7073 12.3197 17.2047 11.5419C17.9936 11.5248 18.9319 11.5317 19.7219 11.5439C19.5989 11.7564 19.4329 12.001 19.2993 12.2102C19.0348 12.6276 18.7676 13.0435 18.4981 13.4577C17.8113 14.5169 17.0887 15.6416 16.4281 16.7156C17.2342 18.0248 18.1033 19.317 18.917 20.6227C19.2406 21.1417 19.6034 21.6539 19.9176 22.1791C19.6746 22.1919 19.339 22.1812 19.0901 22.1805L17.6293 22.1804C17.5116 22.1796 17.3939 22.182 17.2762 22.1871C17.0196 21.8121 16.7111 21.2703 16.4679 20.8729L15.0111 18.519C14.8986 18.6669 14.7667 18.8896 14.6648 19.0519L14.1068 19.9444C13.6485 20.6776 13.151 21.4373 12.7112 22.1783L10.9826 22.1801C10.7313 22.1802 10.3112 22.1689 10.0771 22.1896C10.4297 21.5988 10.8734 20.9624 11.2493 20.3792C12.0385 19.1549 12.8563 17.9438 13.64 16.7156L11.5091 13.3161L10.8022 12.1876C10.6822 11.9989 10.4941 11.7324 10.3945 11.542C10.9652 11.5232 11.5698 11.5458 12.1481 11.5359Z" fill="#3A3A3A"/>
</svg>
