<svg width="30" height="30" viewBox="0 0 30 30" fill="none" xmlns="http://www.w3.org/2000/svg">
<path d="M3.75 17.5H18.75C19.413 17.5 20.0489 17.7634 20.5178 18.2322C20.9866 18.7011 21.25 19.337 21.25 20V23.75C21.25 24.413 20.9866 25.0489 20.5178 25.5178C20.0489 25.9866 19.413 26.25 18.75 26.25H6.25C5.58696 26.25 4.95107 25.9866 4.48223 25.5178C4.01339 25.0489 3.75 24.413 3.75 23.75V11.25C3.75 10.587 4.01339 9.95107 4.48223 9.48223C4.95107 9.01339 5.58696 8.75 6.25 8.75H10C10.663 8.75 11.2989 9.01339 11.7678 9.48223C12.2366 9.95107 12.5 10.587 12.5 11.25V26.25M17.5 5C17.5 4.66848 17.6317 4.35054 17.8661 4.11612C18.1005 3.8817 18.4185 3.75 18.75 3.75H25C25.3315 3.75 25.6495 3.8817 25.8839 4.11612C26.1183 4.35054 26.25 4.66848 26.25 5V11.25C26.25 11.5815 26.1183 11.8995 25.8839 12.1339C25.6495 12.3683 25.3315 12.5 25 12.5H18.75C18.4185 12.5 18.1005 12.3683 17.8661 12.1339C17.6317 11.8995 17.5 11.5815 17.5 11.25V5Z" stroke="#3A3A3A" stroke-width="2" stroke-linecap="round" stroke-linejoin="round"/>
</svg>
